<svg xmlns="http://www.w3.org/2000/svg" xmlns:xlink="http://www.w3.org/1999/xlink" width="500" zoomAndPan="magnify" viewBox="0 0 375 374.999991" height="500" preserveAspectRatio="xMidYMid meet" version="1.0"><defs><clipPath id="3006de8ba6"><path d="M 26.695312 10.96875 L 348.433594 10.96875 L 348.433594 364.21875 L 26.695312 364.21875 Z M 26.695312 10.96875 " clip-rule="nonzero"/></clipPath></defs><rect x="-37.5" width="450" fill="#ffffff" y="-37.499999" height="449.999989" fill-opacity="1"/><rect x="-37.5" width="450" fill="#ffffff" y="-37.499999" height="449.999989" fill-opacity="1"/><g clip-path="url(#3006de8ba6)"><path fill="#000000" d="M 221.457031 364.1875 L 153.65625 364.1875 L 153.65625 309.9375 L 221.453125 309.9375 C 261.441406 309.9375 293.976562 277.40625 293.976562 237.410156 C 293.976562 197.410156 261.441406 164.867188 221.453125 164.867188 L 148.933594 164.867188 C 133.953125 164.867188 121.816406 152.71875 121.816406 137.746094 L 121.816406 110.625 L 221.457031 110.625 C 248.332031 110.625 273.226562 119.089844 293.757812 133.417969 C 291.503906 95.386719 260.046875 65.214844 221.457031 65.214844 L 153.65625 65.214844 C 113.667969 65.214844 81.132812 97.753906 81.132812 137.753906 C 81.132812 177.75 113.667969 210.296875 153.65625 210.296875 L 226.175781 210.296875 C 241.15625 210.296875 253.289062 222.441406 253.289062 237.417969 L 253.289062 264.539062 L 153.664062 264.539062 C 126.789062 264.539062 101.886719 256.070312 81.359375 241.746094 C 83.609375 279.777344 115.070312 309.945312 153.664062 309.945312 L 153.664062 364.1875 C 107.296875 364.1875 66.671875 339.164062 44.570312 301.910156 C 28.574219 274.949219 46.03125 241.242188 76.035156 237.753906 C 46.203125 214.542969 26.898438 178.394531 26.898438 137.746094 C 26.898438 67.839844 83.765625 10.96875 153.664062 10.96875 L 221.464844 10.96875 C 267.832031 10.96875 308.457031 35.988281 330.558594 73.246094 C 346.550781 100.203125 329.089844 133.914062 299.085938 137.402344 C 328.914062 160.617188 348.214844 196.769531 348.214844 237.417969 C 348.214844 307.320312 291.359375 364.1875 221.457031 364.1875 Z M 221.457031 364.1875 " fill-opacity="1" fill-rule="nonzero"/></g></svg>