<svg xmlns="http://www.w3.org/2000/svg" xmlns:xlink="http://www.w3.org/1999/xlink" width="500" zoomAndPan="magnify" viewBox="0 0 375 374.999991" height="500" preserveAspectRatio="xMidYMid meet" version="1.0"><defs><g/><clipPath id="f086a6e1f5"><path d="M 10.015625 93.273438 L 91.878906 93.273438 L 91.878906 270.378906 L 10.015625 270.378906 Z M 10.015625 93.273438 " clip-rule="nonzero"/></clipPath></defs><rect x="-37.5" width="450" fill="#ffffff" y="-37.499999" height="449.999989" fill-opacity="1"/><rect x="-37.5" width="450" fill="#ffffff" y="-37.499999" height="449.999989" fill-opacity="1"/><g fill="#000000" fill-opacity="1"><g transform="translate(96.802285, 267.013158)"><g><path d="M 7.453125 -168.453125 L 53.9375 -168.453125 C 65.957031 -168.453125 74.972656 -165.117188 80.984375 -158.453125 C 87.003906 -151.785156 90.078125 -141.914062 90.203125 -128.84375 L 90.609375 -50.015625 C 90.734375 -33.410156 87.851562 -20.921875 81.96875 -12.546875 C 76.09375 -4.179688 66.351562 0 52.75 0 L 7.453125 0 Z M 47.265625 -29.8125 C 53.410156 -29.8125 56.484375 -32.816406 56.484375 -38.828125 L 56.484375 -125.703125 C 56.484375 -129.492188 56.1875 -132.335938 55.59375 -134.234375 C 55.007812 -136.128906 53.929688 -137.40625 52.359375 -138.0625 C 50.796875 -138.71875 48.378906 -139.046875 45.109375 -139.046875 L 41.375 -139.046875 L 41.375 -29.8125 Z M 47.265625 -29.8125 "/></g></g></g><g fill="#000000" fill-opacity="1"><g transform="translate(193.480627, 267.013158)"><g><path d="M 7.453125 0 L 7.453125 -168.453125 L 74.90625 -168.453125 L 74.90625 -135.90625 L 41.765625 -135.90625 L 41.765625 -103.15625 L 73.546875 -103.15625 L 73.546875 -71.390625 L 41.765625 -71.390625 L 41.765625 -32.75 L 77.078125 -32.75 L 77.078125 0 Z M 7.453125 0 "/></g></g></g><g fill="#000000" fill-opacity="1"><g transform="translate(274.274697, 267.013158)"><g><path d="M 22.9375 0 L 2.15625 -168.65625 L 34.3125 -168.65625 L 46.671875 -53.9375 L 57.65625 -168.65625 L 89.8125 -168.65625 L 69.03125 0 Z M 22.9375 0 "/></g></g></g><g clip-path="url(#f086a6e1f5)"><path fill="#000000" d="M 10.015625 93.273438 L 91.878906 93.273438 L 91.878906 270.433594 L 10.015625 270.433594 Z M 10.015625 93.273438 " fill-opacity="1" fill-rule="nonzero"/></g><g fill="#ffffff" fill-opacity="1"><g transform="translate(74.57533, 265.534465)"><g><path d="M 0.46875 -14.25 C 0.46875 -9.65625 -0.664062 -6.335938 -2.9375 -4.296875 C -5.21875 -2.253906 -8.890625 -1.234375 -13.953125 -1.234375 L -18.90625 -1.234375 L -18.90625 -11.1875 L -12.609375 -11.1875 C -10.085938 -11.1875 -8.828125 -11.992188 -8.828125 -13.609375 C -8.828125 -14.503906 -9.09375 -15.128906 -9.625 -15.484375 C -10.15625 -15.835938 -11.050781 -16.015625 -12.3125 -16.015625 C -13.957031 -16.015625 -15.316406 -15.816406 -16.390625 -15.421875 C -17.472656 -15.035156 -18.378906 -14.535156 -19.109375 -13.921875 C -19.835938 -13.316406 -20.96875 -12.226562 -22.5 -10.65625 L -26.859375 -6.296875 C -30.148438 -2.921875 -33.800781 -1.234375 -37.8125 -1.234375 C -42.125 -1.234375 -45.410156 -2.222656 -47.671875 -4.203125 C -49.929688 -6.191406 -51.0625 -9.085938 -51.0625 -12.890625 C -51.0625 -17.453125 -49.851562 -20.734375 -47.4375 -22.734375 C -45.019531 -24.734375 -41.238281 -25.734375 -36.09375 -25.734375 L -36.09375 -15.421875 L -39.578125 -15.375 C -40.242188 -15.375 -40.769531 -15.1875 -41.15625 -14.8125 C -41.550781 -14.4375 -41.75 -13.914062 -41.75 -13.25 C -41.75 -12.46875 -41.53125 -11.878906 -41.09375 -11.484375 C -40.664062 -11.085938 -40.082031 -10.890625 -39.34375 -10.890625 C -37.6875 -10.890625 -35.976562 -11.832031 -34.21875 -13.71875 L -28.5625 -19.609375 C -27.226562 -20.984375 -25.960938 -22.117188 -24.765625 -23.015625 C -23.566406 -23.921875 -22.148438 -24.648438 -20.515625 -25.203125 C -18.890625 -25.753906 -16.957031 -26.03125 -14.71875 -26.03125 C -9.738281 -26.03125 -5.960938 -25.113281 -3.390625 -23.28125 C -0.816406 -21.457031 0.46875 -18.445312 0.46875 -14.25 Z M 0.46875 -14.25 "/></g></g></g><g fill="#ffffff" fill-opacity="1"><g transform="translate(74.57533, 238.387719)"><g><path d="M 0 -0.890625 L -50.59375 -5.765625 L -50.59375 -22.90625 L 0 -27.734375 L 0 -18.140625 L -8.1875 -17.4375 L -8.1875 -11.3125 L 0 -10.71875 Z M -16.25 -12.078125 L -16.25 -16.671875 L -41.984375 -14.421875 L -41.984375 -13.953125 Z M -16.25 -12.078125 "/></g></g></g><g fill="#ffffff" fill-opacity="1"><g transform="translate(74.57533, 209.827697)"><g><path d="M 0 -0.890625 L -50.59375 -5.765625 L -50.59375 -22.90625 L 0 -27.734375 L 0 -18.140625 L -8.1875 -17.4375 L -8.1875 -11.3125 L 0 -10.71875 Z M -16.25 -12.078125 L -16.25 -16.671875 L -41.984375 -14.421875 L -41.984375 -13.953125 Z M -16.25 -12.078125 "/></g></g></g><g fill="#ffffff" fill-opacity="1"><g transform="translate(74.57533, 181.267675)"><g><path d="M -50.59375 -2.234375 L -50.59375 -15.953125 C -50.59375 -19.648438 -49.6875 -22.332031 -47.875 -24 C -46.070312 -25.664062 -43.128906 -26.5 -39.046875 -26.5 L -36.8125 -26.5 C -31.976562 -26.5 -29.09375 -24.769531 -28.15625 -21.3125 C -27.601562 -23.4375 -26.320312 -24.929688 -24.3125 -25.796875 C -22.3125 -26.660156 -19.664062 -27.09375 -16.375 -27.09375 C -10.988281 -27.09375 -6.910156 -26.285156 -4.140625 -24.671875 C -1.378906 -23.066406 0 -20.160156 0 -15.953125 L 0 -2.234375 Z M -31.5625 -14.1875 C -31.5625 -15.050781 -31.882812 -15.640625 -32.53125 -15.953125 C -33.1875 -16.273438 -34.101562 -16.4375 -35.28125 -16.4375 L -40.34375 -16.4375 C -41.988281 -16.4375 -42.8125 -15.707031 -42.8125 -14.25 L -42.8125 -12.125 L -31.5625 -12.125 Z M -8.890625 -13.125 C -8.890625 -15.757812 -10.144531 -17.078125 -12.65625 -17.078125 L -18.96875 -17.078125 C -20.5 -17.078125 -21.65625 -16.847656 -22.4375 -16.390625 C -23.21875 -15.941406 -23.609375 -15.148438 -23.609375 -14.015625 L -23.609375 -12.125 L -8.953125 -12.125 Z M -8.890625 -13.125 "/></g></g></g><g fill="#ffffff" fill-opacity="1"><g transform="translate(74.57533, 153.060978)"><g><path d="M 0 -1.765625 L -50.59375 -1.765625 L -50.59375 -11.546875 L 0 -11.546875 Z M 0 -1.765625 "/></g></g></g><g fill="#ffffff" fill-opacity="1"><g transform="translate(74.57533, 139.693707)"><g><path d="M -50.59375 -2.234375 L -50.59375 -17.78125 C -50.59375 -20.257812 -50.03125 -22.175781 -48.90625 -23.53125 C -47.789062 -24.882812 -46.222656 -25.796875 -44.203125 -26.265625 C -42.179688 -26.734375 -39.597656 -26.96875 -36.453125 -26.96875 C -33.585938 -26.96875 -31.347656 -26.59375 -29.734375 -25.84375 C -28.128906 -25.101562 -27.015625 -23.8125 -26.390625 -21.96875 C -26.066406 -23.5 -25.296875 -24.609375 -24.078125 -25.296875 C -22.867188 -25.984375 -21.222656 -26.328125 -19.140625 -26.328125 L 0 -26.203125 L 0 -16.3125 L -19.78125 -16.3125 C -21.195312 -16.3125 -22.097656 -16.035156 -22.484375 -15.484375 C -22.878906 -14.929688 -23.078125 -13.929688 -23.078125 -12.484375 L 0 -12.484375 L 0 -2.234375 Z M -31.859375 -14.953125 C -31.859375 -16.367188 -33.390625 -17.078125 -36.453125 -17.078125 C -37.785156 -17.078125 -38.785156 -17.015625 -39.453125 -16.890625 C -40.117188 -16.773438 -40.578125 -16.5625 -40.828125 -16.25 C -41.085938 -15.9375 -41.21875 -15.488281 -41.21875 -14.90625 L -41.21875 -12.546875 L -31.859375 -12.546875 Z M -31.859375 -14.953125 "/></g></g></g><g fill="#ffffff" fill-opacity="1"><g transform="translate(74.57533, 111.604781)"><g><path d="M 0 -1.59375 L -8.59375 -1.59375 L -8.59375 -11.890625 L 0 -11.890625 Z M 0 -1.59375 "/></g></g></g></svg>