<svg xmlns="http://www.w3.org/2000/svg" xmlns:xlink="http://www.w3.org/1999/xlink" width="500" zoomAndPan="magnify" viewBox="0 0 375 374.999991" height="500" preserveAspectRatio="xMidYMid meet" version="1.0"><defs><g/><linearGradient x1="0" gradientTransform="matrix(0.75, 0, 0, 0.75, 0.0000045, 0)" y1="0" x2="0" gradientUnits="userSpaceOnUse" y2="499.999979" id="78a30c819a"><stop stop-opacity="1" stop-color="rgb(95.698547%, 96.499634%, 98.799133%)" offset="0"/><stop stop-opacity="1" stop-color="rgb(95.545959%, 96.339417%, 98.622131%)" offset="0.015625"/><stop stop-opacity="1" stop-color="rgb(95.239258%, 96.020508%, 98.266602%)" offset="0.03125"/><stop stop-opacity="1" stop-color="rgb(94.932556%, 95.701599%, 97.912598%)" offset="0.046875"/><stop stop-opacity="1" stop-color="rgb(94.62738%, 95.38269%, 97.557068%)" offset="0.0625"/><stop stop-opacity="1" stop-color="rgb(94.320679%, 95.063782%, 97.203064%)" offset="0.078125"/><stop stop-opacity="1" stop-color="rgb(94.013977%, 94.744873%, 96.847534%)" offset="0.09375"/><stop stop-opacity="1" stop-color="rgb(93.708801%, 94.425964%, 96.49353%)" offset="0.109375"/><stop stop-opacity="1" stop-color="rgb(93.4021%, 94.108582%, 96.138%)" offset="0.125"/><stop stop-opacity="1" stop-color="rgb(93.095398%, 93.789673%, 95.783997%)" offset="0.140625"/><stop stop-opacity="1" stop-color="rgb(92.788696%, 93.470764%, 95.429993%)" offset="0.15625"/><stop stop-opacity="1" stop-color="rgb(92.483521%, 93.151855%, 95.074463%)" offset="0.171875"/><stop stop-opacity="1" stop-color="rgb(92.176819%, 92.832947%, 94.720459%)" offset="0.1875"/><stop stop-opacity="1" stop-color="rgb(91.870117%, 92.514038%, 94.364929%)" offset="0.203125"/><stop stop-opacity="1" stop-color="rgb(91.564941%, 92.195129%, 94.010925%)" offset="0.21875"/><stop stop-opacity="1" stop-color="rgb(91.25824%, 91.876221%, 93.655396%)" offset="0.234375"/><stop stop-opacity="1" stop-color="rgb(90.951538%, 91.557312%, 93.301392%)" offset="0.25"/><stop stop-opacity="1" stop-color="rgb(90.644836%, 91.239929%, 92.945862%)" offset="0.265625"/><stop stop-opacity="1" stop-color="rgb(90.339661%, 90.921021%, 92.591858%)" offset="0.28125"/><stop stop-opacity="1" stop-color="rgb(90.032959%, 90.602112%, 92.237854%)" offset="0.296875"/><stop stop-opacity="1" stop-color="rgb(89.726257%, 90.283203%, 91.882324%)" offset="0.3125"/><stop stop-opacity="1" stop-color="rgb(89.421082%, 89.964294%, 91.52832%)" offset="0.328125"/><stop stop-opacity="1" stop-color="rgb(89.11438%, 89.645386%, 91.172791%)" offset="0.34375"/><stop stop-opacity="1" stop-color="rgb(88.807678%, 89.326477%, 90.818787%)" offset="0.359375"/><stop stop-opacity="1" stop-color="rgb(88.502502%, 89.007568%, 90.463257%)" offset="0.375"/><stop stop-opacity="1" stop-color="rgb(88.195801%, 88.68866%, 90.109253%)" offset="0.390625"/><stop stop-opacity="1" stop-color="rgb(87.889099%, 88.369751%, 89.753723%)" offset="0.40625"/><stop stop-opacity="1" stop-color="rgb(87.582397%, 88.052368%, 89.399719%)" offset="0.421875"/><stop stop-opacity="1" stop-color="rgb(87.277222%, 87.733459%, 89.045715%)" offset="0.4375"/><stop stop-opacity="1" stop-color="rgb(86.97052%, 87.414551%, 88.690186%)" offset="0.453125"/><stop stop-opacity="1" stop-color="rgb(86.663818%, 87.095642%, 88.336182%)" offset="0.46875"/><stop stop-opacity="1" stop-color="rgb(86.358643%, 86.776733%, 87.980652%)" offset="0.484375"/><stop stop-opacity="1" stop-color="rgb(86.051941%, 86.457825%, 87.626648%)" offset="0.5"/><stop stop-opacity="1" stop-color="rgb(85.745239%, 86.138916%, 87.271118%)" offset="0.515625"/><stop stop-opacity="1" stop-color="rgb(85.440063%, 85.820007%, 86.917114%)" offset="0.53125"/><stop stop-opacity="1" stop-color="rgb(85.133362%, 85.501099%, 86.561584%)" offset="0.546875"/><stop stop-opacity="1" stop-color="rgb(84.82666%, 85.18219%, 86.207581%)" offset="0.5625"/><stop stop-opacity="1" stop-color="rgb(84.519958%, 84.864807%, 85.852051%)" offset="0.578125"/><stop stop-opacity="1" stop-color="rgb(84.214783%, 84.545898%, 85.498047%)" offset="0.59375"/><stop stop-opacity="1" stop-color="rgb(83.908081%, 84.22699%, 85.144043%)" offset="0.609375"/><stop stop-opacity="1" stop-color="rgb(83.601379%, 83.908081%, 84.788513%)" offset="0.625"/><stop stop-opacity="1" stop-color="rgb(83.296204%, 83.589172%, 84.434509%)" offset="0.640625"/><stop stop-opacity="1" stop-color="rgb(82.989502%, 83.270264%, 84.078979%)" offset="0.65625"/><stop stop-opacity="1" stop-color="rgb(82.6828%, 82.951355%, 83.724976%)" offset="0.671875"/><stop stop-opacity="1" stop-color="rgb(82.376099%, 82.632446%, 83.369446%)" offset="0.6875"/><stop stop-opacity="1" stop-color="rgb(82.070923%, 82.313538%, 83.015442%)" offset="0.703125"/><stop stop-opacity="1" stop-color="rgb(81.764221%, 81.996155%, 82.659912%)" offset="0.71875"/><stop stop-opacity="1" stop-color="rgb(81.45752%, 81.677246%, 82.305908%)" offset="0.734375"/><stop stop-opacity="1" stop-color="rgb(81.152344%, 81.358337%, 81.951904%)" offset="0.75"/><stop stop-opacity="1" stop-color="rgb(80.845642%, 81.039429%, 81.596375%)" offset="0.765625"/><stop stop-opacity="1" stop-color="rgb(80.53894%, 80.72052%, 81.242371%)" offset="0.78125"/><stop stop-opacity="1" stop-color="rgb(80.233765%, 80.401611%, 80.886841%)" offset="0.796875"/><stop stop-opacity="1" stop-color="rgb(79.927063%, 80.082703%, 80.532837%)" offset="0.8125"/><stop stop-opacity="1" stop-color="rgb(79.620361%, 79.763794%, 80.177307%)" offset="0.828125"/><stop stop-opacity="1" stop-color="rgb(79.31366%, 79.444885%, 79.823303%)" offset="0.84375"/><stop stop-opacity="1" stop-color="rgb(79.008484%, 79.125977%, 79.467773%)" offset="0.859375"/><stop stop-opacity="1" stop-color="rgb(78.701782%, 78.808594%, 79.11377%)" offset="0.875"/><stop stop-opacity="1" stop-color="rgb(78.395081%, 78.489685%, 78.759766%)" offset="0.890625"/><stop stop-opacity="1" stop-color="rgb(78.089905%, 78.170776%, 78.404236%)" offset="0.90625"/><stop stop-opacity="1" stop-color="rgb(77.783203%, 77.851868%, 78.050232%)" offset="0.921875"/><stop stop-opacity="1" stop-color="rgb(77.476501%, 77.532959%, 77.694702%)" offset="0.9375"/><stop stop-opacity="1" stop-color="rgb(77.171326%, 77.21405%, 77.340698%)" offset="0.953125"/><stop stop-opacity="1" stop-color="rgb(76.864624%, 76.895142%, 76.985168%)" offset="0.96875"/><stop stop-opacity="1" stop-color="rgb(76.557922%, 76.576233%, 76.631165%)" offset="0.984375"/><stop stop-opacity="1" stop-color="rgb(76.251221%, 76.257324%, 76.275635%)" offset="1"/></linearGradient><clipPath id="31feb0a91e"><path d="M 219 124 L 270 124 L 270 149 L 219 149 Z M 219 124 " clip-rule="nonzero"/></clipPath><clipPath id="f5cb49e002"><path d="M 215.933594 118.101562 L 285.304688 125.382812 L 278.570312 189.53125 L 209.203125 182.25 Z M 215.933594 118.101562 " clip-rule="nonzero"/></clipPath><clipPath id="593ec0adc2"><path d="M 209.21875 182.109375 L 278.585938 189.390625 L 285.320312 125.242188 L 215.949219 117.960938 Z M 209.21875 182.109375 " clip-rule="nonzero"/></clipPath><clipPath id="dea97337c0"><path d="M 220 137 L 277 137 L 277 163 L 220 163 Z M 220 137 " clip-rule="nonzero"/></clipPath><clipPath id="cfac369e32"><path d="M 215.933594 118.101562 L 285.304688 125.382812 L 278.570312 189.53125 L 209.203125 182.25 Z M 215.933594 118.101562 " clip-rule="nonzero"/></clipPath><clipPath id="113814dba9"><path d="M 209.21875 182.109375 L 278.585938 189.390625 L 285.320312 125.242188 L 215.949219 117.960938 Z M 209.21875 182.109375 " clip-rule="nonzero"/></clipPath><clipPath id="0a84bf0bab"><path d="M 234 152 L 278 152 L 278 178 L 234 178 Z M 234 152 " clip-rule="nonzero"/></clipPath><clipPath id="0b294db1ae"><path d="M 215.933594 118.101562 L 285.304688 125.382812 L 278.570312 189.53125 L 209.203125 182.25 Z M 215.933594 118.101562 " clip-rule="nonzero"/></clipPath><clipPath id="7f1c9a209d"><path d="M 209.21875 182.109375 L 278.585938 189.390625 L 285.320312 125.242188 L 215.949219 117.960938 Z M 209.21875 182.109375 " clip-rule="nonzero"/></clipPath><clipPath id="5ff583c7ac"><path d="M 251 171 L 274 171 L 274 186 L 251 186 Z M 251 171 " clip-rule="nonzero"/></clipPath><clipPath id="bb35954e29"><path d="M 215.933594 118.101562 L 285.304688 125.382812 L 278.570312 189.53125 L 209.203125 182.25 Z M 215.933594 118.101562 " clip-rule="nonzero"/></clipPath><clipPath id="a1742470b8"><path d="M 209.21875 182.109375 L 278.585938 189.390625 L 285.320312 125.242188 L 215.949219 117.960938 Z M 209.21875 182.109375 " clip-rule="nonzero"/></clipPath><clipPath id="223057b52a"><path d="M 225 121 L 256 121 L 256 135 L 225 135 Z M 225 121 " clip-rule="nonzero"/></clipPath><clipPath id="b85db92e14"><path d="M 215.933594 118.101562 L 285.304688 125.382812 L 278.570312 189.53125 L 209.203125 182.25 Z M 215.933594 118.101562 " clip-rule="nonzero"/></clipPath><clipPath id="08c777ee09"><path d="M 209.21875 182.109375 L 278.585938 189.390625 L 285.320312 125.242188 L 215.949219 117.960938 Z M 209.21875 182.109375 " clip-rule="nonzero"/></clipPath><clipPath id="953c74d03a"><path d="M 88.355469 156.203125 L 201.863281 156.203125 L 201.863281 189.414062 L 88.355469 189.414062 Z M 88.355469 156.203125 " clip-rule="nonzero"/></clipPath><clipPath id="b2a4362680"><path d="M 95.855469 156.203125 L 194.25 156.203125 C 196.238281 156.203125 198.148438 156.992188 199.554688 158.398438 C 200.960938 159.808594 201.75 161.714844 201.75 163.703125 L 201.75 181.914062 C 201.75 183.902344 200.960938 185.808594 199.554688 187.214844 C 198.148438 188.621094 196.238281 189.414062 194.25 189.414062 L 95.855469 189.414062 C 93.863281 189.414062 91.957031 188.621094 90.550781 187.214844 C 89.144531 185.808594 88.355469 183.902344 88.355469 181.914062 L 88.355469 163.703125 C 88.355469 161.714844 89.144531 159.808594 90.550781 158.398438 C 91.957031 156.992188 93.863281 156.203125 95.855469 156.203125 Z M 95.855469 156.203125 " clip-rule="nonzero"/></clipPath></defs><rect x="-37.5" width="450" fill="#ffffff" y="-37.499999" height="449.999989" fill-opacity="1"/><rect x="-37.5" fill="url(#78a30c819a)" width="450" y="-37.499999" height="449.999989"/><g clip-path="url(#31feb0a91e)"><g clip-path="url(#f5cb49e002)"><g clip-path="url(#593ec0adc2)"><path fill="#0a0a0a" d="M 248.070312 148.386719 C 238.660156 148.722656 213.21875 144.214844 220.355469 136.648438 C 220.753906 136.222656 221.347656 135.734375 221.832031 135.414062 C 222.292969 135.109375 224.675781 133.625 226.320312 134.453125 C 239.066406 143.625 263.019531 139.925781 262.105469 131.460938 C 261.804688 128.6875 258.910156 126.339844 255.695312 124.75 C 255.703125 124.734375 255.699219 124.714844 255.707031 124.699219 C 256.726562 125.136719 257.046875 125.296875 258.015625 125.796875 C 260.335938 127.09375 260.574219 127.230469 262.117188 128.277344 C 263.148438 129.042969 264.507812 130.085938 265.496094 130.90625 C 275.222656 140.042969 264.109375 147.800781 248.070312 148.386719 " fill-opacity="1" fill-rule="evenodd"/></g></g></g><g clip-path="url(#dea97337c0)"><g clip-path="url(#cfac369e32)"><g clip-path="url(#113814dba9)"><path fill="#0a0a0a" d="M 226.710938 150.484375 C 253.507812 158.035156 277.472656 148.691406 271.925781 137.054688 C 271.953125 137.035156 271.984375 137.019531 272.011719 137 C 273.300781 139.019531 274.285156 140.75 275.582031 143.960938 L 276.105469 145.398438 C 281.246094 164.84375 235.011719 165.664062 222.972656 159.269531 C 220.355469 157.882812 219.429688 154.839844 220.917969 152.492188 C 221.589844 151.429688 223.238281 149.757812 226.710938 150.484375 " fill-opacity="1" fill-rule="evenodd"/></g></g></g><g clip-path="url(#0a84bf0bab)"><g clip-path="url(#0b294db1ae)"><g clip-path="url(#7f1c9a209d)"><path fill="#0a0a0a" d="M 250.996094 167.707031 C 254.171875 167.433594 257.207031 166.957031 260.019531 166.28125 C 262.816406 165.609375 265.40625 164.742188 267.675781 163.691406 C 269.945312 162.640625 271.894531 161.402344 273.457031 159.988281 C 274.183594 159.332031 274.800781 158.652344 275.3125 157.960938 C 275.832031 157.273438 276.234375 156.566406 276.546875 155.851562 C 276.851562 155.136719 277.050781 154.410156 277.160156 153.683594 C 277.207031 153.375 277.21875 153.070312 277.226562 152.765625 C 277.242188 152.765625 277.253906 152.757812 277.277344 152.757812 C 277.453125 155.417969 277.46875 156.371094 277.261719 159.363281 C 277.117188 160.417969 276.964844 161.828125 276.777344 162.878906 C 276.199219 164.988281 274.457031 171.410156 260.28125 175.15625 C 260.054688 175.214844 238.050781 180.566406 235.042969 173.910156 C 234.683594 173.117188 234.636719 171.960938 234.929688 171.167969 C 235.273438 170.234375 236.570312 168.039062 241.148438 167.902344 C 244.515625 168.050781 247.824219 167.980469 250.996094 167.707031 " fill-opacity="1" fill-rule="evenodd"/></g></g></g><g clip-path="url(#5ff583c7ac)"><g clip-path="url(#bb35954e29)"><g clip-path="url(#a1742470b8)"><path fill="#0a0a0a" d="M 257.902344 179.613281 C 259.339844 179.285156 260.71875 178.90625 262.035156 178.472656 C 263.34375 178.046875 264.585938 177.5625 265.75 177.035156 C 266.910156 176.503906 267.988281 175.925781 268.972656 175.300781 C 269.957031 174.671875 270.855469 174 271.648438 173.28125 C 272 172.957031 272.328125 172.628906 272.628906 172.296875 C 272.929688 171.96875 273.207031 171.632812 273.449219 171.289062 C 273.511719 171.210938 273.554688 171.128906 273.613281 171.050781 C 273.605469 171.191406 271.707031 174.898438 270.097656 177.132812 C 269.105469 178.519531 268.109375 179.9375 265.183594 181.871094 C 264.308594 182.453125 263.320312 182.957031 262.285156 183.433594 C 261.230469 183.910156 260.117188 184.34375 258.941406 184.734375 C 257.757812 185.121094 256.515625 185.464844 255.222656 185.761719 C 250.890625 186.480469 251.539062 184.078125 252.109375 183.175781 C 252.453125 182.628906 253.894531 180.753906 257.902344 179.613281 " fill-opacity="1" fill-rule="evenodd"/></g></g></g><g clip-path="url(#223057b52a)"><g clip-path="url(#b85db92e14)"><g clip-path="url(#08c777ee09)"><path fill="#0a0a0a" d="M 244.277344 134.347656 C 238.21875 134.414062 221.933594 131.101562 226.644531 126.347656 C 226.90625 126.082031 227.296875 125.777344 227.613281 125.582031 C 227.917969 125.390625 229.472656 124.476562 230.515625 125.035156 C 241.753906 133.5625 258.515625 128.046875 245.582031 121.246094 C 245.582031 121.234375 245.582031 121.222656 245.582031 121.214844 C 259.492188 127.621094 258.925781 134.183594 244.277344 134.347656 " fill-opacity="1" fill-rule="evenodd"/></g></g></g><g clip-path="url(#953c74d03a)"><g clip-path="url(#b2a4362680)"><path fill="#0a0a0a" d="M 88.355469 156.203125 L 201.734375 156.203125 L 201.734375 189.414062 L 88.355469 189.414062 Z M 88.355469 156.203125 " fill-opacity="1" fill-rule="nonzero"/></g></g><g fill="#f4f6fc" fill-opacity="1"><g transform="translate(93.314904, 175.703688)"><g><path d="M 7.46875 -7 L 7.46875 0 L 5.53125 0 L 2.875 -3.1875 L 2.875 0 L 0.5625 0 L 0.5625 -7 L 2.515625 -7 L 5.171875 -3.8125 L 5.171875 -7 Z M 7.46875 -7 "/></g></g></g><g fill="#f4f6fc" fill-opacity="1"><g transform="translate(103.351729, 175.703688)"><g><path d="M 4.234375 0.15625 C 3.484375 0.15625 2.804688 0 2.203125 -0.3125 C 1.609375 -0.625 1.140625 -1.054688 0.796875 -1.609375 C 0.460938 -2.171875 0.296875 -2.800781 0.296875 -3.5 C 0.296875 -4.195312 0.460938 -4.820312 0.796875 -5.375 C 1.140625 -5.9375 1.609375 -6.375 2.203125 -6.6875 C 2.804688 -7 3.484375 -7.15625 4.234375 -7.15625 C 4.992188 -7.15625 5.671875 -7 6.265625 -6.6875 C 6.867188 -6.375 7.335938 -5.9375 7.671875 -5.375 C 8.015625 -4.820312 8.1875 -4.195312 8.1875 -3.5 C 8.1875 -2.800781 8.015625 -2.171875 7.671875 -1.609375 C 7.335938 -1.054688 6.867188 -0.625 6.265625 -0.3125 C 5.671875 0 4.992188 0.15625 4.234375 0.15625 Z M 4.234375 -1.75 C 4.535156 -1.75 4.800781 -1.820312 5.03125 -1.96875 C 5.269531 -2.113281 5.457031 -2.316406 5.59375 -2.578125 C 5.738281 -2.835938 5.8125 -3.144531 5.8125 -3.5 C 5.8125 -3.851562 5.738281 -4.160156 5.59375 -4.421875 C 5.457031 -4.679688 5.269531 -4.882812 5.03125 -5.03125 C 4.800781 -5.175781 4.535156 -5.25 4.234375 -5.25 C 3.941406 -5.25 3.675781 -5.175781 3.4375 -5.03125 C 3.207031 -4.882812 3.019531 -4.679688 2.875 -4.421875 C 2.738281 -4.160156 2.671875 -3.851562 2.671875 -3.5 C 2.671875 -3.144531 2.738281 -2.835938 2.875 -2.578125 C 3.019531 -2.316406 3.207031 -2.113281 3.4375 -1.96875 C 3.675781 -1.820312 3.941406 -1.75 4.234375 -1.75 Z M 4.234375 -1.75 "/></g></g></g><g fill="#f4f6fc" fill-opacity="1"><g transform="translate(113.828386, 175.703688)"><g><path d="M 3.5625 -1.765625 L 2.9375 -1.765625 L 2.9375 0 L 0.5625 0 L 0.5625 -7 L 3.9375 -7 C 4.582031 -7 5.144531 -6.890625 5.625 -6.671875 C 6.101562 -6.460938 6.472656 -6.15625 6.734375 -5.75 C 6.992188 -5.351562 7.125 -4.890625 7.125 -4.359375 C 7.125 -3.859375 7.007812 -3.421875 6.78125 -3.046875 C 6.5625 -2.671875 6.238281 -2.375 5.8125 -2.15625 L 7.28125 0 L 4.765625 0 Z M 4.75 -4.359375 C 4.75 -4.617188 4.664062 -4.820312 4.5 -4.96875 C 4.34375 -5.113281 4.109375 -5.1875 3.796875 -5.1875 L 2.9375 -5.1875 L 2.9375 -3.546875 L 3.796875 -3.546875 C 4.109375 -3.546875 4.34375 -3.613281 4.5 -3.75 C 4.664062 -3.894531 4.75 -4.097656 4.75 -4.359375 Z M 4.75 -4.359375 "/></g></g></g><g fill="#f4f6fc" fill-opacity="1"><g transform="translate(123.27544, 175.703688)"><g><path d="M 2.09375 -5.171875 L 0.046875 -5.171875 L 0.046875 -7 L 6.5 -7 L 6.5 -5.171875 L 4.453125 -5.171875 L 4.453125 0 L 2.09375 0 Z M 2.09375 -5.171875 "/></g></g></g><g fill="#f4f6fc" fill-opacity="1"><g transform="translate(131.81286, 175.703688)"><g><path d="M 7.46875 -7 L 7.46875 0 L 5.109375 0 L 5.109375 -2.578125 L 2.9375 -2.578125 L 2.9375 0 L 0.5625 0 L 0.5625 -7 L 2.9375 -7 L 2.9375 -4.515625 L 5.109375 -4.515625 L 5.109375 -7 Z M 7.46875 -7 "/></g></g></g><g fill="#f4f6fc" fill-opacity="1"><g transform="translate(141.849683, 175.703688)"><g><path d="M 4.1875 0.15625 C 3.445312 0.15625 2.78125 0.00390625 2.1875 -0.296875 C 1.59375 -0.609375 1.128906 -1.039062 0.796875 -1.59375 C 0.460938 -2.15625 0.296875 -2.789062 0.296875 -3.5 C 0.296875 -4.207031 0.460938 -4.835938 0.796875 -5.390625 C 1.128906 -5.953125 1.59375 -6.382812 2.1875 -6.6875 C 2.78125 -7 3.445312 -7.15625 4.1875 -7.15625 C 4.863281 -7.15625 5.46875 -7.035156 6 -6.796875 C 6.539062 -6.554688 6.984375 -6.210938 7.328125 -5.765625 L 5.84375 -4.4375 C 5.40625 -4.976562 4.894531 -5.25 4.3125 -5.25 C 3.8125 -5.25 3.410156 -5.085938 3.109375 -4.765625 C 2.816406 -4.453125 2.671875 -4.03125 2.671875 -3.5 C 2.671875 -2.96875 2.816406 -2.539062 3.109375 -2.21875 C 3.410156 -1.90625 3.8125 -1.75 4.3125 -1.75 C 4.894531 -1.75 5.40625 -2.019531 5.84375 -2.5625 L 7.328125 -1.234375 C 6.984375 -0.785156 6.539062 -0.441406 6 -0.203125 C 5.46875 0.0351562 4.863281 0.15625 4.1875 0.15625 Z M 4.1875 0.15625 "/></g></g></g><g fill="#f4f6fc" fill-opacity="1"><g transform="translate(151.286744, 175.703688)"><g><path d="M 4.234375 0.15625 C 3.484375 0.15625 2.804688 0 2.203125 -0.3125 C 1.609375 -0.625 1.140625 -1.054688 0.796875 -1.609375 C 0.460938 -2.171875 0.296875 -2.800781 0.296875 -3.5 C 0.296875 -4.195312 0.460938 -4.820312 0.796875 -5.375 C 1.140625 -5.9375 1.609375 -6.375 2.203125 -6.6875 C 2.804688 -7 3.484375 -7.15625 4.234375 -7.15625 C 4.992188 -7.15625 5.671875 -7 6.265625 -6.6875 C 6.867188 -6.375 7.335938 -5.9375 7.671875 -5.375 C 8.015625 -4.820312 8.1875 -4.195312 8.1875 -3.5 C 8.1875 -2.800781 8.015625 -2.171875 7.671875 -1.609375 C 7.335938 -1.054688 6.867188 -0.625 6.265625 -0.3125 C 5.671875 0 4.992188 0.15625 4.234375 0.15625 Z M 4.234375 -1.75 C 4.535156 -1.75 4.800781 -1.820312 5.03125 -1.96875 C 5.269531 -2.113281 5.457031 -2.316406 5.59375 -2.578125 C 5.738281 -2.835938 5.8125 -3.144531 5.8125 -3.5 C 5.8125 -3.851562 5.738281 -4.160156 5.59375 -4.421875 C 5.457031 -4.679688 5.269531 -4.882812 5.03125 -5.03125 C 4.800781 -5.175781 4.535156 -5.25 4.234375 -5.25 C 3.941406 -5.25 3.675781 -5.175781 3.4375 -5.03125 C 3.207031 -4.882812 3.019531 -4.679688 2.875 -4.421875 C 2.738281 -4.160156 2.671875 -3.851562 2.671875 -3.5 C 2.671875 -3.144531 2.738281 -2.835938 2.875 -2.578125 C 3.019531 -2.316406 3.207031 -2.113281 3.4375 -1.96875 C 3.675781 -1.820312 3.941406 -1.75 4.234375 -1.75 Z M 4.234375 -1.75 "/></g></g></g><g fill="#f4f6fc" fill-opacity="1"><g transform="translate(161.763397, 175.703688)"><g><path d="M 0.5625 -7 L 4.015625 -7 C 4.796875 -7 5.484375 -6.859375 6.078125 -6.578125 C 6.679688 -6.296875 7.144531 -5.890625 7.46875 -5.359375 C 7.800781 -4.828125 7.96875 -4.207031 7.96875 -3.5 C 7.96875 -2.789062 7.800781 -2.171875 7.46875 -1.640625 C 7.144531 -1.109375 6.679688 -0.703125 6.078125 -0.421875 C 5.484375 -0.140625 4.796875 0 4.015625 0 L 0.5625 0 Z M 3.921875 -1.84375 C 4.429688 -1.84375 4.835938 -1.984375 5.140625 -2.265625 C 5.441406 -2.554688 5.59375 -2.96875 5.59375 -3.5 C 5.59375 -4.03125 5.441406 -4.4375 5.140625 -4.71875 C 4.835938 -5.007812 4.429688 -5.15625 3.921875 -5.15625 L 2.9375 -5.15625 L 2.9375 -1.84375 Z M 3.921875 -1.84375 "/></g></g></g><g fill="#f4f6fc" fill-opacity="1"><g transform="translate(172.020129, 175.703688)"><g><path d="M 6.390625 -1.78125 L 6.390625 0 L 0.5625 0 L 0.5625 -7 L 6.265625 -7 L 6.265625 -5.21875 L 2.890625 -5.21875 L 2.890625 -4.40625 L 5.84375 -4.40625 L 5.84375 -2.703125 L 2.890625 -2.703125 L 2.890625 -1.78125 Z M 6.390625 -1.78125 "/></g></g></g><g fill="#f4f6fc" fill-opacity="1"><g transform="translate(180.747462, 175.703688)"><g><path d="M 3.5625 -1.765625 L 2.9375 -1.765625 L 2.9375 0 L 0.5625 0 L 0.5625 -7 L 3.9375 -7 C 4.582031 -7 5.144531 -6.890625 5.625 -6.671875 C 6.101562 -6.460938 6.472656 -6.15625 6.734375 -5.75 C 6.992188 -5.351562 7.125 -4.890625 7.125 -4.359375 C 7.125 -3.859375 7.007812 -3.421875 6.78125 -3.046875 C 6.5625 -2.671875 6.238281 -2.375 5.8125 -2.15625 L 7.28125 0 L 4.765625 0 Z M 4.75 -4.359375 C 4.75 -4.617188 4.664062 -4.820312 4.5 -4.96875 C 4.34375 -5.113281 4.109375 -5.1875 3.796875 -5.1875 L 2.9375 -5.1875 L 2.9375 -3.546875 L 3.796875 -3.546875 C 4.109375 -3.546875 4.34375 -3.613281 4.5 -3.75 C 4.664062 -3.894531 4.75 -4.097656 4.75 -4.359375 Z M 4.75 -4.359375 "/></g></g></g><g fill="#f4f6fc" fill-opacity="1"><g transform="translate(190.194513, 175.703688)"><g><path d="M 3.1875 0.15625 C 2.601562 0.15625 2.035156 0.09375 1.484375 -0.03125 C 0.929688 -0.164062 0.476562 -0.34375 0.125 -0.5625 L 0.890625 -2.28125 C 1.222656 -2.082031 1.59375 -1.925781 2 -1.8125 C 2.414062 -1.695312 2.816406 -1.640625 3.203125 -1.640625 C 3.523438 -1.640625 3.753906 -1.671875 3.890625 -1.734375 C 4.035156 -1.796875 4.109375 -1.890625 4.109375 -2.015625 C 4.109375 -2.160156 4.015625 -2.269531 3.828125 -2.34375 C 3.648438 -2.414062 3.351562 -2.5 2.9375 -2.59375 C 2.394531 -2.707031 1.941406 -2.828125 1.578125 -2.953125 C 1.222656 -3.085938 0.910156 -3.300781 0.640625 -3.59375 C 0.367188 -3.894531 0.234375 -4.296875 0.234375 -4.796875 C 0.234375 -5.234375 0.359375 -5.632812 0.609375 -6 C 0.859375 -6.363281 1.226562 -6.644531 1.71875 -6.84375 C 2.207031 -7.050781 2.800781 -7.15625 3.5 -7.15625 C 3.976562 -7.15625 4.445312 -7.101562 4.90625 -7 C 5.375 -6.894531 5.785156 -6.742188 6.140625 -6.546875 L 5.4375 -4.84375 C 4.75 -5.1875 4.097656 -5.359375 3.484375 -5.359375 C 2.867188 -5.359375 2.5625 -5.210938 2.5625 -4.921875 C 2.5625 -4.773438 2.648438 -4.664062 2.828125 -4.59375 C 3.015625 -4.53125 3.316406 -4.457031 3.734375 -4.375 C 4.265625 -4.28125 4.710938 -4.164062 5.078125 -4.03125 C 5.441406 -3.90625 5.757812 -3.691406 6.03125 -3.390625 C 6.300781 -3.097656 6.4375 -2.703125 6.4375 -2.203125 C 6.4375 -1.765625 6.3125 -1.363281 6.0625 -1 C 5.820312 -0.644531 5.457031 -0.363281 4.96875 -0.15625 C 4.476562 0.0507812 3.882812 0.15625 3.1875 0.15625 Z M 3.1875 0.15625 "/></g></g></g><g fill="#ff3131" fill-opacity="1"><g transform="translate(89.338175, 236.17352)"><g><path d="M 40.859375 -38.296875 L 40.859375 0 L 30.25 0 L 15.703125 -17.390625 L 15.703125 0 L 3.125 0 L 3.125 -38.296875 L 13.734375 -38.296875 L 28.28125 -20.890625 L 28.28125 -38.296875 Z M 40.859375 -38.296875 "/></g></g></g><g fill="#ff3131" fill-opacity="1"><g transform="translate(134.687202, 236.17352)"><g><path d="M 34.953125 -9.734375 L 34.953125 0 L 3.125 0 L 3.125 -38.296875 L 34.25 -38.296875 L 34.25 -28.5625 L 15.8125 -28.5625 L 15.8125 -24.0625 L 32 -24.0625 L 32 -14.765625 L 15.8125 -14.765625 L 15.8125 -9.734375 Z M 34.953125 -9.734375 "/></g></g></g><g fill="#ff3131" fill-opacity="1"><g transform="translate(172.870123, 236.17352)"><g><path d="M 65.421875 -38.296875 L 53.171875 0 L 39.328125 0 L 33.15625 -20.453125 L 26.640625 0 L 12.796875 0 L 0.546875 -38.296875 L 13.84375 -38.296875 L 20.515625 -16.515625 L 27.578125 -38.296875 L 39.4375 -38.296875 L 46.109375 -16.25 L 53.171875 -38.296875 Z M 65.421875 -38.296875 "/></g></g></g><g fill="#ff3131" fill-opacity="1"><g transform="translate(240.209803, 236.17352)"><g><path d="M 17.390625 0.875 C 14.222656 0.875 11.132812 0.519531 8.125 -0.1875 C 5.113281 -0.90625 2.644531 -1.863281 0.71875 -3.0625 L 4.875 -12.46875 C 6.695312 -11.414062 8.738281 -10.566406 11 -9.921875 C 13.257812 -9.285156 15.425781 -8.96875 17.5 -8.96875 C 19.289062 -8.96875 20.566406 -9.140625 21.328125 -9.484375 C 22.097656 -9.835938 22.484375 -10.359375 22.484375 -11.046875 C 22.484375 -11.847656 21.976562 -12.445312 20.96875 -12.84375 C 19.96875 -13.25 18.320312 -13.691406 16.03125 -14.171875 C 13.070312 -14.785156 10.609375 -15.445312 8.640625 -16.15625 C 6.671875 -16.875 4.957031 -18.039062 3.5 -19.65625 C 2.039062 -21.28125 1.3125 -23.476562 1.3125 -26.25 C 1.3125 -28.664062 1.984375 -30.859375 3.328125 -32.828125 C 4.679688 -34.796875 6.695312 -36.34375 9.375 -37.46875 C 12.0625 -38.601562 15.316406 -39.171875 19.140625 -39.171875 C 21.765625 -39.171875 24.34375 -38.882812 26.875 -38.3125 C 29.414062 -37.75 31.65625 -36.921875 33.59375 -35.828125 L 29.703125 -26.46875 C 25.941406 -28.375 22.382812 -29.328125 19.03125 -29.328125 C 15.71875 -29.328125 14.0625 -28.519531 14.0625 -26.90625 C 14.0625 -26.144531 14.550781 -25.570312 15.53125 -25.1875 C 16.519531 -24.800781 18.144531 -24.390625 20.40625 -23.953125 C 23.320312 -23.410156 25.78125 -22.78125 27.78125 -22.0625 C 29.789062 -21.351562 31.535156 -20.195312 33.015625 -18.59375 C 34.492188 -16.988281 35.234375 -14.800781 35.234375 -12.03125 C 35.234375 -9.625 34.554688 -7.445312 33.203125 -5.5 C 31.859375 -3.550781 29.84375 -2 27.15625 -0.84375 C 24.476562 0.300781 21.222656 0.875 17.390625 0.875 Z M 17.390625 0.875 "/></g></g></g></svg>