<svg xmlns="http://www.w3.org/2000/svg" xmlns:xlink="http://www.w3.org/1999/xlink" width="500" zoomAndPan="magnify" viewBox="0 0 375 374.999991" height="500" preserveAspectRatio="xMidYMid meet" version="1.0"><defs><g/><linearGradient x1="0" gradientTransform="matrix(0.75, 0, 0, 0.75, 0.0000045, 0)" y1="0" x2="499.999979" gradientUnits="userSpaceOnUse" y2="499.999979" id="e23085362d"><stop stop-opacity="1" stop-color="rgb(83.099365%, 83.099365%, 83.099365%)" offset="0"/><stop stop-opacity="1" stop-color="rgb(83.230591%, 83.230591%, 83.230591%)" offset="0.015625"/><stop stop-opacity="1" stop-color="rgb(83.494568%, 83.494568%, 83.494568%)" offset="0.03125"/><stop stop-opacity="1" stop-color="rgb(83.758545%, 83.758545%, 83.758545%)" offset="0.046875"/><stop stop-opacity="1" stop-color="rgb(84.022522%, 84.022522%, 84.022522%)" offset="0.0625"/><stop stop-opacity="1" stop-color="rgb(84.286499%, 84.286499%, 84.286499%)" offset="0.078125"/><stop stop-opacity="1" stop-color="rgb(84.550476%, 84.550476%, 84.550476%)" offset="0.09375"/><stop stop-opacity="1" stop-color="rgb(84.814453%, 84.814453%, 84.814453%)" offset="0.109375"/><stop stop-opacity="1" stop-color="rgb(85.07843%, 85.07843%, 85.07843%)" offset="0.125"/><stop stop-opacity="1" stop-color="rgb(85.342407%, 85.342407%, 85.342407%)" offset="0.140625"/><stop stop-opacity="1" stop-color="rgb(85.606384%, 85.606384%, 85.606384%)" offset="0.15625"/><stop stop-opacity="1" stop-color="rgb(85.871887%, 85.871887%, 85.871887%)" offset="0.171875"/><stop stop-opacity="1" stop-color="rgb(86.135864%, 86.135864%, 86.135864%)" offset="0.1875"/><stop stop-opacity="1" stop-color="rgb(86.399841%, 86.399841%, 86.399841%)" offset="0.203125"/><stop stop-opacity="1" stop-color="rgb(86.663818%, 86.663818%, 86.663818%)" offset="0.21875"/><stop stop-opacity="1" stop-color="rgb(86.927795%, 86.927795%, 86.927795%)" offset="0.234375"/><stop stop-opacity="1" stop-color="rgb(87.191772%, 87.191772%, 87.191772%)" offset="0.25"/><stop stop-opacity="1" stop-color="rgb(87.45575%, 87.45575%, 87.45575%)" offset="0.265625"/><stop stop-opacity="1" stop-color="rgb(87.719727%, 87.719727%, 87.719727%)" offset="0.28125"/><stop stop-opacity="1" stop-color="rgb(87.983704%, 87.983704%, 87.983704%)" offset="0.296875"/><stop stop-opacity="1" stop-color="rgb(88.247681%, 88.247681%, 88.247681%)" offset="0.3125"/><stop stop-opacity="1" stop-color="rgb(88.511658%, 88.511658%, 88.511658%)" offset="0.328125"/><stop stop-opacity="1" stop-color="rgb(88.775635%, 88.775635%, 88.775635%)" offset="0.34375"/><stop stop-opacity="1" stop-color="rgb(89.039612%, 89.039612%, 89.039612%)" offset="0.359375"/><stop stop-opacity="1" stop-color="rgb(89.303589%, 89.303589%, 89.303589%)" offset="0.375"/><stop stop-opacity="1" stop-color="rgb(89.567566%, 89.567566%, 89.567566%)" offset="0.390625"/><stop stop-opacity="1" stop-color="rgb(89.831543%, 89.831543%, 89.831543%)" offset="0.40625"/><stop stop-opacity="1" stop-color="rgb(90.09552%, 90.09552%, 90.09552%)" offset="0.421875"/><stop stop-opacity="1" stop-color="rgb(90.359497%, 90.359497%, 90.359497%)" offset="0.4375"/><stop stop-opacity="1" stop-color="rgb(90.625%, 90.625%, 90.625%)" offset="0.453125"/><stop stop-opacity="1" stop-color="rgb(90.888977%, 90.888977%, 90.888977%)" offset="0.46875"/><stop stop-opacity="1" stop-color="rgb(91.152954%, 91.152954%, 91.152954%)" offset="0.484375"/><stop stop-opacity="1" stop-color="rgb(91.416931%, 91.416931%, 91.416931%)" offset="0.5"/><stop stop-opacity="1" stop-color="rgb(91.680908%, 91.680908%, 91.680908%)" offset="0.515625"/><stop stop-opacity="1" stop-color="rgb(91.944885%, 91.944885%, 91.944885%)" offset="0.53125"/><stop stop-opacity="1" stop-color="rgb(92.208862%, 92.208862%, 92.208862%)" offset="0.546875"/><stop stop-opacity="1" stop-color="rgb(92.472839%, 92.472839%, 92.472839%)" offset="0.5625"/><stop stop-opacity="1" stop-color="rgb(92.736816%, 92.736816%, 92.736816%)" offset="0.578125"/><stop stop-opacity="1" stop-color="rgb(93.000793%, 93.000793%, 93.000793%)" offset="0.59375"/><stop stop-opacity="1" stop-color="rgb(93.264771%, 93.264771%, 93.264771%)" offset="0.609375"/><stop stop-opacity="1" stop-color="rgb(93.528748%, 93.528748%, 93.528748%)" offset="0.625"/><stop stop-opacity="1" stop-color="rgb(93.792725%, 93.792725%, 93.792725%)" offset="0.640625"/><stop stop-opacity="1" stop-color="rgb(94.056702%, 94.056702%, 94.056702%)" offset="0.65625"/><stop stop-opacity="1" stop-color="rgb(94.320679%, 94.320679%, 94.320679%)" offset="0.671875"/><stop stop-opacity="1" stop-color="rgb(94.584656%, 94.584656%, 94.584656%)" offset="0.6875"/><stop stop-opacity="1" stop-color="rgb(94.848633%, 94.848633%, 94.848633%)" offset="0.703125"/><stop stop-opacity="1" stop-color="rgb(95.11261%, 95.11261%, 95.11261%)" offset="0.71875"/><stop stop-opacity="1" stop-color="rgb(95.378113%, 95.378113%, 95.378113%)" offset="0.734375"/><stop stop-opacity="1" stop-color="rgb(95.64209%, 95.64209%, 95.64209%)" offset="0.75"/><stop stop-opacity="1" stop-color="rgb(95.906067%, 95.906067%, 95.906067%)" offset="0.765625"/><stop stop-opacity="1" stop-color="rgb(96.170044%, 96.170044%, 96.170044%)" offset="0.78125"/><stop stop-opacity="1" stop-color="rgb(96.434021%, 96.434021%, 96.434021%)" offset="0.796875"/><stop stop-opacity="1" stop-color="rgb(96.697998%, 96.697998%, 96.697998%)" offset="0.8125"/><stop stop-opacity="1" stop-color="rgb(96.961975%, 96.961975%, 96.961975%)" offset="0.828125"/><stop stop-opacity="1" stop-color="rgb(97.225952%, 97.225952%, 97.225952%)" offset="0.84375"/><stop stop-opacity="1" stop-color="rgb(97.489929%, 97.489929%, 97.489929%)" offset="0.859375"/><stop stop-opacity="1" stop-color="rgb(97.753906%, 97.753906%, 97.753906%)" offset="0.875"/><stop stop-opacity="1" stop-color="rgb(98.017883%, 98.017883%, 98.017883%)" offset="0.890625"/><stop stop-opacity="1" stop-color="rgb(98.28186%, 98.28186%, 98.28186%)" offset="0.90625"/><stop stop-opacity="1" stop-color="rgb(98.545837%, 98.545837%, 98.545837%)" offset="0.921875"/><stop stop-opacity="1" stop-color="rgb(98.809814%, 98.809814%, 98.809814%)" offset="0.9375"/><stop stop-opacity="1" stop-color="rgb(99.073792%, 99.073792%, 99.073792%)" offset="0.953125"/><stop stop-opacity="1" stop-color="rgb(99.337769%, 99.337769%, 99.337769%)" offset="0.96875"/><stop stop-opacity="1" stop-color="rgb(99.601746%, 99.601746%, 99.601746%)" offset="0.984375"/><stop stop-opacity="1" stop-color="rgb(99.865723%, 99.865723%, 99.865723%)" offset="1"/></linearGradient></defs><rect x="-37.5" width="450" fill="#ffffff" y="-37.499999" height="449.999989" fill-opacity="1"/><rect x="-37.5" fill="url(#e23085362d)" width="450" y="-37.499999" height="449.999989"/><g fill="#141414" fill-opacity="1"><g transform="translate(63.593716, 197.193853)"><g><path d="M 19.5 -45 C 21.882812 -45 24.21875 -44.648438 26.5 -43.953125 C 28.789062 -43.253906 30.492188 -42.566406 31.609375 -41.890625 L 33.203125 -40.8125 L 29.140625 -32.78125 C 28.816406 -33 28.367188 -33.273438 27.796875 -33.609375 C 27.222656 -33.953125 26.148438 -34.40625 24.578125 -34.96875 C 23.015625 -35.539062 21.550781 -35.828125 20.1875 -35.828125 C 18.507812 -35.828125 17.210938 -35.46875 16.296875 -34.75 C 15.390625 -34.039062 14.9375 -33.082031 14.9375 -31.875 C 14.9375 -31.257812 15.148438 -30.691406 15.578125 -30.171875 C 16.015625 -29.660156 16.75 -29.109375 17.78125 -28.515625 C 18.820312 -27.929688 19.734375 -27.457031 20.515625 -27.09375 C 21.296875 -26.738281 22.507812 -26.207031 24.15625 -25.5 C 27.007812 -24.28125 29.445312 -22.625 31.46875 -20.53125 C 33.488281 -18.445312 34.5 -16.082031 34.5 -13.4375 C 34.5 -10.90625 34.039062 -8.691406 33.125 -6.796875 C 32.21875 -4.910156 30.96875 -3.429688 29.375 -2.359375 C 27.789062 -1.285156 26.03125 -0.492188 24.09375 0.015625 C 22.164062 0.535156 20.082031 0.796875 17.84375 0.796875 C 15.90625 0.796875 14.007812 0.597656 12.15625 0.203125 C 10.300781 -0.179688 8.75 -0.664062 7.5 -1.25 C 6.25 -1.84375 5.125 -2.425781 4.125 -3 C 3.125 -3.570312 2.390625 -4.054688 1.921875 -4.453125 L 1.234375 -5.03125 L 6.265625 -13.5 C 6.691406 -13.144531 7.28125 -12.6875 8.03125 -12.125 C 8.78125 -11.570312 10.109375 -10.832031 12.015625 -9.90625 C 13.929688 -8.976562 15.625 -8.515625 17.09375 -8.515625 C 21.332031 -8.515625 23.453125 -9.960938 23.453125 -12.859375 C 23.453125 -13.460938 23.300781 -14.019531 23 -14.53125 C 22.695312 -15.050781 22.160156 -15.570312 21.390625 -16.09375 C 20.628906 -16.613281 19.953125 -17.023438 19.359375 -17.328125 C 18.773438 -17.628906 17.8125 -18.09375 16.46875 -18.71875 C 15.132812 -19.34375 14.144531 -19.816406 13.5 -20.140625 C 10.820312 -21.460938 8.75 -23.113281 7.28125 -25.09375 C 5.820312 -27.070312 5.09375 -29.207031 5.09375 -31.5 C 5.09375 -35.457031 6.554688 -38.695312 9.484375 -41.21875 C 12.410156 -43.738281 15.75 -45 19.5 -45 Z M 19.5 -45 "/></g></g></g><g fill="#141414" fill-opacity="1"><g transform="translate(95.029135, 197.193853)"><g><path d="M 5.078125 -3.421875 C 2.515625 -6.242188 1.234375 -9.691406 1.234375 -13.765625 C 1.234375 -17.835938 2.515625 -21.273438 5.078125 -24.078125 C 7.648438 -26.878906 10.921875 -28.28125 14.890625 -28.28125 C 18.535156 -28.28125 21.535156 -26.976562 23.890625 -24.375 L 24 -24.375 L 24 -27.484375 L 33.375 -27.484375 L 33.375 13.921875 L 23.890625 13.921875 L 23.890625 -2.625 C 21.535156 -0.34375 18.535156 0.796875 14.890625 0.796875 C 10.921875 0.796875 7.648438 -0.609375 5.078125 -3.421875 Z M 13.0625 -18.390625 C 11.882812 -17.203125 11.296875 -15.660156 11.296875 -13.765625 C 11.296875 -11.867188 11.910156 -10.3125 13.140625 -9.09375 C 14.378906 -7.882812 15.910156 -7.28125 17.734375 -7.28125 C 19.515625 -7.28125 21.019531 -7.882812 22.25 -9.09375 C 23.488281 -10.3125 24.109375 -11.867188 24.109375 -13.765625 C 24.109375 -15.617188 23.507812 -17.148438 22.3125 -18.359375 C 21.113281 -19.578125 19.585938 -20.1875 17.734375 -20.1875 C 15.804688 -20.1875 14.25 -19.585938 13.0625 -18.390625 Z M 13.0625 -18.390625 "/></g></g></g><g fill="#141414" fill-opacity="1"><g transform="translate(127.053661, 197.193853)"><g><path d="M 12.15625 -27.484375 L 12.15625 -14.40625 C 12.15625 -11.695312 12.566406 -9.769531 13.390625 -8.625 C 14.210938 -7.476562 15.601562 -6.90625 17.5625 -6.90625 C 19.53125 -6.90625 20.925781 -7.476562 21.75 -8.625 C 22.570312 -9.769531 22.984375 -11.695312 22.984375 -14.40625 L 22.984375 -27.484375 L 32.453125 -27.484375 L 32.453125 -12.109375 C 32.453125 -7.535156 31.265625 -4.238281 28.890625 -2.21875 C 26.515625 -0.207031 22.738281 0.796875 17.5625 0.796875 C 12.382812 0.796875 8.609375 -0.207031 6.234375 -2.21875 C 3.859375 -4.238281 2.671875 -7.535156 2.671875 -12.109375 L 2.671875 -27.484375 Z M 12.15625 -27.484375 "/></g></g></g><g fill="#141414" fill-opacity="1"><g transform="translate(157.632204, 197.193853)"><g><path d="M 5.078125 -3.40625 C 2.515625 -6.207031 1.234375 -9.640625 1.234375 -13.703125 C 1.234375 -17.773438 2.515625 -21.222656 5.078125 -24.046875 C 7.648438 -26.867188 10.921875 -28.28125 14.890625 -28.28125 C 18.535156 -28.28125 21.535156 -27.140625 23.890625 -24.859375 L 23.890625 -27.484375 L 33.375 -27.484375 L 33.375 0 L 24 0 L 24 -3.109375 L 23.890625 -3.109375 C 21.535156 -0.503906 18.535156 0.796875 14.890625 0.796875 C 10.921875 0.796875 7.648438 -0.601562 5.078125 -3.40625 Z M 13.140625 -18.359375 C 11.910156 -17.148438 11.296875 -15.597656 11.296875 -13.703125 C 11.296875 -11.816406 11.882812 -10.273438 13.0625 -9.078125 C 14.25 -7.878906 15.804688 -7.28125 17.734375 -7.28125 C 19.585938 -7.28125 21.113281 -7.882812 22.3125 -9.09375 C 23.507812 -10.3125 24.109375 -11.851562 24.109375 -13.71875 C 24.109375 -15.601562 23.488281 -17.148438 22.25 -18.359375 C 21.019531 -19.578125 19.515625 -20.1875 17.734375 -20.1875 C 15.910156 -20.1875 14.378906 -19.578125 13.140625 -18.359375 Z M 13.140625 -18.359375 "/></g></g></g><g fill="#141414" fill-opacity="1"><g transform="translate(189.65673, 197.193853)"><g><path d="M 3.21875 0 L 3.21875 -27.484375 L 12.6875 -27.484375 L 12.6875 -23.515625 L 12.796875 -23.515625 C 12.867188 -23.660156 12.984375 -23.835938 13.140625 -24.046875 C 13.304688 -24.265625 13.65625 -24.640625 14.1875 -25.171875 C 14.726562 -25.710938 15.300781 -26.195312 15.90625 -26.625 C 16.507812 -27.050781 17.296875 -27.429688 18.265625 -27.765625 C 19.234375 -28.109375 20.210938 -28.28125 21.203125 -28.28125 C 22.242188 -28.28125 23.265625 -28.132812 24.265625 -27.84375 C 25.265625 -27.5625 25.992188 -27.28125 26.453125 -27 L 27.203125 -26.5625 L 23.25 -18.53125 C 22.070312 -19.53125 20.425781 -20.03125 18.3125 -20.03125 C 17.175781 -20.03125 16.195312 -19.78125 15.375 -19.28125 C 14.550781 -18.78125 13.96875 -18.171875 13.625 -17.453125 C 13.289062 -16.742188 13.050781 -16.140625 12.90625 -15.640625 C 12.757812 -15.140625 12.6875 -14.75 12.6875 -14.46875 L 12.6875 0 Z M 3.21875 0 "/></g></g></g><g fill="#141414" fill-opacity="1"><g transform="translate(211.773615, 197.193853)"><g><path d="M 31.015625 -12.421875 L 11.09375 -12.421875 C 11.09375 -10.492188 11.71875 -9.066406 12.96875 -8.140625 C 14.21875 -7.210938 15.570312 -6.75 17.03125 -6.75 C 18.570312 -6.75 19.785156 -6.953125 20.671875 -7.359375 C 21.566406 -7.773438 22.585938 -8.585938 23.734375 -9.796875 L 30.578125 -6.375 C 27.722656 -1.59375 22.976562 0.796875 16.34375 0.796875 C 12.195312 0.796875 8.640625 -0.617188 5.671875 -3.453125 C 2.710938 -6.296875 1.234375 -9.71875 1.234375 -13.71875 C 1.234375 -17.71875 2.710938 -21.144531 5.671875 -24 C 8.640625 -26.851562 12.195312 -28.28125 16.34375 -28.28125 C 20.695312 -28.28125 24.238281 -27.019531 26.96875 -24.5 C 29.695312 -21.988281 31.0625 -18.394531 31.0625 -13.71875 C 31.0625 -13.070312 31.046875 -12.640625 31.015625 -12.421875 Z M 11.359375 -17.671875 L 21.796875 -17.671875 C 21.585938 -19.097656 21.023438 -20.195312 20.109375 -20.96875 C 19.203125 -21.738281 18.035156 -22.125 16.609375 -22.125 C 15.035156 -22.125 13.785156 -21.710938 12.859375 -20.890625 C 11.929688 -20.066406 11.429688 -18.992188 11.359375 -17.671875 Z M 11.359375 -17.671875 "/></g></g></g><g fill="#00b65e" fill-opacity="1"><g transform="translate(239.515579, 197.193853)"><g><path d="M 37.171875 -44.1875 L 37.171875 -15.6875 C 37.171875 -10.257812 35.707031 -6.15625 32.78125 -3.375 C 29.851562 -0.59375 25.566406 0.796875 19.921875 0.796875 C 14.285156 0.796875 10 -0.59375 7.0625 -3.375 C 4.132812 -6.15625 2.671875 -10.257812 2.671875 -15.6875 L 2.671875 -44.1875 L 12.75 -44.1875 L 12.75 -18.640625 C 12.75 -15.066406 13.3125 -12.582031 14.4375 -11.1875 C 15.5625 -9.800781 17.390625 -9.109375 19.921875 -9.109375 C 22.460938 -9.109375 24.296875 -9.800781 25.421875 -11.1875 C 26.546875 -12.582031 27.109375 -15.066406 27.109375 -18.640625 L 27.109375 -44.1875 Z M 37.171875 -44.1875 "/></g></g></g><g fill="#00b65e" fill-opacity="1"><g transform="translate(274.806948, 197.193853)"><g><path d="M 31.484375 -24.078125 C 34.054688 -21.273438 35.34375 -17.835938 35.34375 -13.765625 C 35.34375 -9.691406 34.054688 -6.242188 31.484375 -3.421875 C 28.921875 -0.609375 25.65625 0.796875 21.6875 0.796875 C 18.050781 0.796875 15.050781 -0.34375 12.6875 -2.625 L 12.6875 13.921875 L 3.21875 13.921875 L 3.21875 -27.484375 L 12.59375 -27.484375 L 12.59375 -24.375 L 12.6875 -24.375 C 15.050781 -26.976562 18.050781 -28.28125 21.6875 -28.28125 C 25.65625 -28.28125 28.921875 -26.878906 31.484375 -24.078125 Z M 23.421875 -9.09375 C 24.660156 -10.3125 25.28125 -11.867188 25.28125 -13.765625 C 25.28125 -15.660156 24.691406 -17.203125 23.515625 -18.390625 C 22.335938 -19.585938 20.785156 -20.1875 18.859375 -20.1875 C 16.992188 -20.1875 15.460938 -19.578125 14.265625 -18.359375 C 13.078125 -17.148438 12.484375 -15.617188 12.484375 -13.765625 C 12.484375 -11.867188 13.097656 -10.3125 14.328125 -9.09375 C 15.554688 -7.882812 17.066406 -7.28125 18.859375 -7.28125 C 20.671875 -7.28125 22.191406 -7.882812 23.421875 -9.09375 Z M 23.421875 -9.09375 "/></g></g></g><path stroke-linecap="butt" transform="matrix(0.75, 0, 0, 0.75, 37.500002, 220.708169)" fill="none" stroke-linejoin="miter" d="M -0.00000271667 4.998484 L 84.432294 4.998484 " stroke="#000000" stroke-width="10" stroke-opacity="1" stroke-miterlimit="4"/><path stroke-linecap="butt" transform="matrix(0, 0.75, -0.75, 0, 44.996157, 164.114476)" fill="none" stroke-linejoin="miter" d="M -0.0015925 5.000084 L 82.461955 5.000084 " stroke="#000000" stroke-width="10" stroke-opacity="1" stroke-miterlimit="4"/><path stroke-linecap="butt" transform="matrix(-0.75, 0, 0, -0.75, 337.491544, 139.554176)" fill="none" stroke-linejoin="miter" d="M -0.000858083 4.999318 L 84.431439 4.999318 " stroke="#000000" stroke-width="10" stroke-opacity="1" stroke-miterlimit="4"/><path stroke-linecap="butt" transform="matrix(0, -0.75, 0.75, 0, 329.995413, 196.147869)" fill="none" stroke-linejoin="miter" d="M -0.000758374 5.000908 L 82.462789 5.000908 " stroke="#000000" stroke-width="10" stroke-opacity="1" stroke-miterlimit="4"/></svg>